<svg width="24" height="28" viewBox="0 0 24 28" fill="none" xmlns="http://www.w3.org/2000/svg">
<path d="M0.994141 26.7734H23.3857" stroke="black" stroke-width="0.6"/>
<path d="M6.62203 21.7734L16.8163 6.84465H18.0745L7.88032 21.7734H6.62203ZM7.77368 14.8422C7.10544 14.8422 6.5154 14.6787 6.00355 14.3517C5.49171 14.0105 5.09361 13.5342 4.80925 12.9228C4.53911 12.3114 4.40404 11.6005 4.40404 10.7901C4.40404 9.97969 4.53911 9.2688 4.80925 8.65743C5.09361 8.04606 5.49171 7.57687 6.00355 7.24986C6.5154 6.90863 7.10544 6.73801 7.77368 6.73801C8.44192 6.73801 9.02486 6.90863 9.52248 7.24986C10.0343 7.57687 10.4324 8.04606 10.7168 8.65743C11.0011 9.2688 11.1433 9.97969 11.1433 10.7901C11.1433 11.6005 11.0011 12.3114 10.7168 12.9228C10.4324 13.5342 10.0343 14.0105 9.52248 14.3517C9.02486 14.6787 8.44192 14.8422 7.77368 14.8422ZM7.77368 13.8825C8.47036 13.8825 9.02486 13.6124 9.43718 13.0721C9.86371 12.5176 10.077 11.7569 10.077 10.7901C10.077 9.8233 9.86371 9.06975 9.43718 8.52947C9.02486 7.97497 8.47036 7.69772 7.77368 7.69772C7.06279 7.69772 6.50118 7.97497 6.08886 8.52947C5.67654 9.06975 5.47038 9.8233 5.47038 10.7901C5.47038 11.7569 5.67654 12.5176 6.08886 13.0721C6.50118 13.6124 7.06279 13.8825 7.77368 13.8825ZM16.9229 21.8801C16.2689 21.8801 15.6859 21.7166 15.1741 21.3896C14.6623 21.0483 14.2642 20.572 13.9798 19.9607C13.6954 19.3493 13.5533 18.6384 13.5533 17.828C13.5533 17.0176 13.6954 16.3067 13.9798 15.6953C14.2642 15.0839 14.6623 14.6147 15.1741 14.2877C15.6859 13.9465 16.2689 13.7759 16.9229 13.7759C17.6054 13.7759 18.1954 13.9465 18.693 14.2877C19.2049 14.6147 19.5959 15.0839 19.866 15.6953C20.1504 16.3067 20.2925 17.0176 20.2925 17.828C20.2925 18.6384 20.1504 19.3493 19.866 19.9607C19.5959 20.572 19.2049 21.0483 18.693 21.3896C18.1954 21.7166 17.6054 21.8801 16.9229 21.8801ZM16.9229 20.9204C17.6196 20.9204 18.1741 20.6502 18.5864 20.1099C19.0129 19.5554 19.2262 18.7948 19.2262 17.828C19.2262 16.8612 19.0129 16.1076 18.5864 15.5673C18.1741 15.0128 17.6196 14.7356 16.9229 14.7356C16.2262 14.7356 15.6646 15.0128 15.2381 15.5673C14.8258 16.1076 14.6196 16.8612 14.6196 17.828C14.6196 18.7948 14.8258 19.5554 15.2381 20.1099C15.6646 20.6502 16.2262 20.9204 16.9229 20.9204Z" fill="#132452"/>
</svg>
