<svg width="22" height="28" viewBox="0 0 22 28" fill="none" xmlns="http://www.w3.org/2000/svg">
<path d="M5.305 8.32417L5.08767 9.06565H0.945623L1.16295 8.32417H5.305ZM3.36182 13.3228L1.02233 10.4591L1.00954 9.92219H2.1729C2.47545 9.92219 2.73327 9.87957 2.94633 9.79434C3.1594 9.70699 3.3224 9.57702 3.43533 9.40443C3.54825 9.22971 3.60471 9.01025 3.60471 8.74605C3.60471 8.35613 3.48753 8.05038 3.25315 7.82879C3.01878 7.60507 2.65869 7.49321 2.1729 7.49321H0.945623L1.16295 6.7773H2.1729C2.69278 6.7773 3.11892 6.86359 3.45131 7.03618C3.78582 7.20663 4.03298 7.44101 4.19278 7.7393C4.35471 8.03547 4.43568 8.37105 4.43568 8.74605C4.43568 9.08483 4.36111 9.39697 4.21196 9.68248C4.06494 9.96586 3.82844 10.1938 3.50244 10.3664C3.17858 10.539 2.75031 10.6253 2.21764 10.6253H2.19846L4.35898 13.2716V13.3228H3.36182ZM5.305 6.7773L5.08767 7.51878L1.82773 7.49321L2.04506 6.7773H5.305Z" fill="black"/>
<path d="M12.5816 27.2834C11.1985 27.2834 10.0112 26.8583 9.01942 26.0083C8.02768 25.1582 7.26532 23.9404 6.73234 22.355C6.20611 20.7628 5.943 18.8569 5.943 16.6373C5.943 14.4245 6.20949 12.522 6.74246 10.9298C7.27544 9.33759 8.03442 8.11647 9.01942 7.26641C10.0112 6.41634 11.1985 5.99131 12.5816 5.99131C13.9646 5.99131 15.1486 6.41634 16.1336 7.26641C17.1254 8.11647 17.8877 9.33759 18.4207 10.9298C18.9537 12.522 19.2202 14.4245 19.2202 16.6373C19.2202 18.8569 18.9537 20.7628 18.4207 22.355C17.8945 23.9404 17.1355 25.1582 16.1437 26.0083C15.152 26.8583 13.9646 27.2834 12.5816 27.2834ZM12.5816 26.1095C14.2615 26.1095 15.5804 25.2763 16.5384 23.6099C17.4964 21.9367 17.9754 19.6126 17.9754 16.6373C17.9754 14.6539 17.7562 12.9537 17.3176 11.537C16.8859 10.1202 16.2686 9.03737 15.4657 8.28851C14.6629 7.53289 13.7015 7.15509 12.5816 7.15509C10.9017 7.15509 9.58275 7.99166 8.62474 9.6648C7.66674 11.3379 7.18773 13.6621 7.18773 16.6373C7.18773 18.6208 7.40362 20.3209 7.8354 21.7377C8.26718 23.1477 8.88449 24.2306 9.68732 24.9862C10.4969 25.735 11.4617 26.1095 12.5816 26.1095Z" fill="#132452"/>
</svg>
