<svg width="35" height="27" viewBox="0 0 35 27" fill="none" xmlns="http://www.w3.org/2000/svg">
<path d="M22.0598 6.81986V14.0452H25.8503M20.4634 0.988281H23.4841M33.6718 14.0452C33.6718 17.5743 32.0975 20.7357 29.6128 22.8654C27.5823 24.6058 24.9438 25.6572 22.0598 25.6572C18.5569 25.6572 15.4164 24.1062 13.2873 21.6535C11.5184 19.6157 10.4478 16.9555 10.4478 14.0452C10.4478 7.63203 15.6466 2.43315 22.0598 2.43315C25.7417 2.43315 29.0233 4.14672 31.1507 6.81986C32.7289 8.80286 33.6718 11.3139 33.6718 14.0452Z" stroke="#132452" stroke-width="0.8"/>
<path d="M3.771 8.17969H9.89697" stroke="black" stroke-width="0.8"/>
<path d="M0.708496 12.0781H6.83447" stroke="black" stroke-width="0.8"/>
<path d="M0.708496 17.0918H6.83447" stroke="black" stroke-width="0.8"/>
<path d="M4.32178 20.9902H10.4478" stroke="black" stroke-width="0.8"/>
</svg>
