<svg width="31" height="34" viewBox="0 0 31 34" fill="none" xmlns="http://www.w3.org/2000/svg">
<path d="M18.1495 10.2409L17.7481 11.5738H8.22071L8.61453 10.2409H18.1495ZM14.2946 22.0176L8.34188 15.0273L8.32674 14.0503H10.932C11.7196 14.0503 12.3912 13.9367 12.9465 13.7095C13.5019 13.4772 13.926 13.1339 14.2189 12.6795C14.5168 12.2251 14.6657 11.6621 14.6657 10.9906C14.6657 10.001 14.3552 9.22349 13.7342 8.65801C13.1182 8.08748 12.2346 7.80221 11.0835 7.80221H8.22071L8.61453 6.50715H11.0835C12.1942 6.50715 13.1233 6.69901 13.8705 7.08273C14.6228 7.46645 15.1883 7.99659 15.567 8.67316C15.9507 9.34467 16.1425 10.1172 16.1425 10.9906C16.1425 11.8086 15.9583 12.5457 15.5897 13.2021C15.2262 13.8534 14.6632 14.3709 13.9008 14.7546C13.1435 15.1333 12.1766 15.3226 11.0002 15.3226H10.4549L16.0592 21.904V22.0176H14.2946ZM18.2025 6.50715L17.8087 7.84008L9.78084 7.80221L10.1444 6.50715H18.2025Z" fill="#132452"/>
<path d="M21.4066 23.3559C24.123 21.0275 25.8442 17.5712 25.8442 13.7129C25.8442 10.7268 24.8133 7.98151 23.0879 5.81353M21.4066 23.3559C19.1867 25.2587 16.302 26.4082 13.1489 26.4082C9.31931 26.4082 5.88573 24.7125 3.55806 22.031M21.4066 23.3559L30.4025 33.6293M3.55806 22.031C1.62414 19.8031 0.453613 16.8947 0.453613 13.7129C0.453613 6.70146 6.1375 1.01758 13.1489 1.01758C17.1743 1.01758 20.762 2.89101 23.0879 5.81353M3.55806 22.031L23.0879 5.81353" stroke="black" stroke-width="0.6"/>
<path d="M23.9762 14.2203C23.76 17.0997 22.6655 19.6114 21.1135 21.2423" stroke="black" stroke-width="0.6"/>
</svg>
